<svg width="512" height="512" viewBox="0 0 512 512" fill="none" xmlns="http://www.w3.org/2000/svg">
<rect width="512" height="512" rx="84" fill="white"/>
<g filter="url(#filter0_d_85_499)">
<path d="M69.6562 376.203C69.6562 408.279 85.6838 424.88 118.548 424.88H386.969C420.966 424.88 437.802 408.279 437.802 375.075V129.275C437.802 96.072 420.966 79.3093 386.969 79.3093H191.886C158.05 79.3093 141.051 96.072 141.051 129.275V206.158H102.359C81.7983 206.158 69.6562 217.279 69.6562 236.461V376.203ZM95.7212 376.203V241.457C95.7212 235.494 99.2828 232.109 105.273 232.109H141.051V376.203C141.051 389.582 131.176 398.931 118.548 398.931C105.759 398.931 95.7212 389.098 95.7212 376.203ZM161.612 398.931C165.174 392 167.116 383.94 167.116 374.593V130.726C167.116 113.963 176.182 105.259 192.372 105.259H386.483C402.672 105.259 411.738 113.963 411.738 130.726V373.624C411.738 390.388 402.672 398.931 386.483 398.931H161.612ZM209.209 175.373H369.97C375.635 175.373 380.006 170.86 380.006 165.218C380.006 159.738 375.635 155.548 369.97 155.548H209.209C203.381 155.548 199.009 159.738 199.009 165.218C199.009 170.86 203.381 175.373 209.209 175.373ZM209.209 232.109H369.97C375.635 232.109 380.006 227.757 380.006 222.276C380.006 216.635 375.635 212.283 369.97 212.283H209.209C203.381 212.283 199.009 216.635 199.009 222.276C199.009 227.757 203.381 232.109 209.209 232.109ZM218.761 347.03H260.691C272.996 347.03 280.442 339.616 280.442 327.367V289.005C280.442 276.595 272.996 269.18 260.691 269.18H218.761C206.295 269.18 198.847 276.595 198.847 289.005V327.367C198.847 339.616 206.295 347.03 218.761 347.03ZM309.583 289.005H369.808C375.635 289.005 379.844 284.814 379.844 279.335C379.844 273.532 375.635 269.18 369.808 269.18H309.583C303.755 269.18 299.545 273.532 299.545 279.335C299.545 284.814 303.755 289.005 309.583 289.005ZM309.583 347.03H369.808C375.635 347.03 379.844 342.84 379.844 337.359C379.844 331.718 375.635 327.204 369.808 327.204H309.583C303.755 327.204 299.545 331.718 299.545 337.359C299.545 342.84 303.755 347.03 309.583 347.03Z" fill="#888888"/>
</g>
<defs>
<filter id="filter0_d_85_499" x="64.1562" y="79.3093" width="379.146" height="361.071" filterUnits="userSpaceOnUse" color-interpolation-filters="sRGB">
<feFlood flood-opacity="0" result="BackgroundImageFix"/>
<feColorMatrix in="SourceAlpha" type="matrix" values="0 0 0 0 0 0 0 0 0 0 0 0 0 0 0 0 0 0 127 0" result="hardAlpha"/>
<feOffset dy="10"/>
<feGaussianBlur stdDeviation="2.75"/>
<feComposite in2="hardAlpha" operator="out"/>
<feColorMatrix type="matrix" values="0 0 0 0 0.726667 0 0 0 0 0.726667 0 0 0 0 0.726667 0 0 0 0.35 0"/>
<feBlend mode="normal" in2="BackgroundImageFix" result="effect1_dropShadow_85_499"/>
<feBlend mode="normal" in="SourceGraphic" in2="effect1_dropShadow_85_499" result="shape"/>
</filter>
</defs>
</svg>
