<svg width="512" height="512" viewBox="0 0 512 512" fill="none" xmlns="http://www.w3.org/2000/svg">
<rect width="512" height="512" rx="84" fill="#6495ED"/>
<path d="M391.314 143.314C397.562 137.065 397.562 126.935 391.314 120.686C385.065 114.438 374.935 114.438 368.686 120.686L391.314 143.314ZM116 380C116 388.837 123.163 396 132 396L276 396C284.837 396 292 388.837 292 380C292 371.163 284.837 364 276 364L148 364L148 236C148 227.163 140.837 220 132 220C123.163 220 116 227.163 116 236L116 380ZM368.686 120.686L120.686 368.686L143.314 391.314L391.314 143.314L368.686 120.686Z" fill="#F2F2F2"/>
</svg>
