<svg width="48" height="48" viewBox="0 0 48 48" fill="none" xmlns="http://www.w3.org/2000/svg">
<g clip-path="url(#clip0_84_494)">
<path d="M23.6521 47.9763C36.5914 47.9763 47.3043 37.0877 47.3043 23.9882C47.3043 10.8652 36.5682 0 23.629 0C10.713 0 0 10.8652 0 23.9882C0 37.0877 10.7362 47.9763 23.6521 47.9763ZM23.6521 43.9785C12.7073 43.9785 3.96523 35.0887 3.96523 23.9882C3.96523 12.8878 12.6841 3.99804 23.629 3.99804C34.574 3.99804 43.3624 12.8878 43.3624 23.9882C43.3624 35.0887 34.5972 43.9785 23.6521 43.9785Z" fill="#007AFF" fill-opacity="0.85"/>
<path d="M34.4582 27.3748C36.2899 27.3748 37.8205 25.8462 37.8205 23.9647C37.8205 22.0833 36.2899 20.5547 34.4582 20.5547C32.6031 20.5547 31.0957 22.0833 31.0957 23.9647C31.0957 25.8462 32.6031 27.3748 34.4582 27.3748Z" fill="#007AFF" fill-opacity="0.85"/>
<path d="M23.6289 27.3748C25.484 27.3748 26.9912 25.8462 26.9912 23.9647C26.9912 22.0833 25.484 20.5547 23.6289 20.5547C21.7738 20.5547 20.2666 22.0833 20.2666 23.9647C20.2666 25.8462 21.7738 27.3748 23.6289 27.3748Z" fill="#007AFF" fill-opacity="0.85"/>
<path d="M12.8233 27.3748C14.6551 27.3748 16.1624 25.8462 16.1624 23.9647C16.1624 22.0833 14.632 20.5547 12.8233 20.5547C10.9682 20.5547 9.46094 22.0833 9.46094 23.9647C9.46094 25.8462 10.9682 27.3748 12.8233 27.3748Z" fill="#007AFF" fill-opacity="0.85"/>
</g>
<defs>
<clipPath id="clip0_84_494">
<rect width="48" height="48" fill="white"/>
</clipPath>
</defs>
</svg>
