<svg width="48" height="45" viewBox="0 0 48 45" fill="none" xmlns="http://www.w3.org/2000/svg">
<g clip-path="url(#clip0_84_530)">
<path d="M0 38.3749C0 42.5209 2.06251 44.6667 6.29166 44.6667H40.8334C45.2084 44.6667 47.3749 42.5209 47.3749 38.2292V6.45833C47.3749 2.16667 45.2084 0 40.8334 0H15.7292C11.375 0 9.1875 2.16667 9.1875 6.45833V16.3958H4.20834C1.5625 16.3958 0 17.8332 0 20.3125V38.3749ZM3.35417 38.3749V20.9584C3.35417 20.1876 3.8125 19.75 4.58332 19.75H9.1875V38.3749C9.1875 40.1042 7.91666 41.3125 6.29166 41.3125C4.64583 41.3125 3.35417 40.0416 3.35417 38.3749ZM11.8333 41.3125C12.2917 40.4167 12.5417 39.3749 12.5417 38.1668V6.64583C12.5417 4.47916 13.7083 3.35417 15.7917 3.35417H40.7708C42.8542 3.35417 44.0208 4.47916 44.0208 6.64583V38.0416C44.0208 40.2084 42.8542 41.3125 40.7708 41.3125H11.8333ZM17.9584 12.4167H38.6459C39.3749 12.4167 39.9374 11.8333 39.9374 11.1042C39.9374 10.3958 39.3749 9.85417 38.6459 9.85417H17.9584C17.2083 9.85417 16.6458 10.3958 16.6458 11.1042C16.6458 11.8333 17.2083 12.4167 17.9584 12.4167ZM17.9584 19.75H38.6459C39.3749 19.75 39.9374 19.1876 39.9374 18.4791C39.9374 17.75 39.3749 17.1875 38.6459 17.1875H17.9584C17.2083 17.1875 16.6458 17.75 16.6458 18.4791C16.6458 19.1876 17.2083 19.75 17.9584 19.75ZM19.1876 34.6041H24.5833C26.1668 34.6041 27.125 33.6459 27.125 32.0626V27.1042C27.125 25.5001 26.1668 24.5417 24.5833 24.5417H19.1876C17.5833 24.5417 16.625 25.5001 16.625 27.1042V32.0626C16.625 33.6459 17.5833 34.6041 19.1876 34.6041ZM30.875 27.1042H38.6251C39.3749 27.1042 39.9166 26.5625 39.9166 25.8542C39.9166 25.1042 39.3749 24.5417 38.6251 24.5417H30.875C30.125 24.5417 29.5833 25.1042 29.5833 25.8542C29.5833 26.5625 30.125 27.1042 30.875 27.1042ZM30.875 34.6041H38.6251C39.3749 34.6041 39.9166 34.0626 39.9166 33.3541C39.9166 32.6251 39.3749 32.0416 38.6251 32.0416H30.875C30.125 32.0416 29.5833 32.6251 29.5833 33.3541C29.5833 34.0626 30.125 34.6041 30.875 34.6041Z" fill="#007AFF" fill-opacity="0.85"/>
</g>
<defs>
<clipPath id="clip0_84_530">
<rect width="48" height="44.6875" fill="white"/>
</clipPath>
</defs>
</svg>
