<svg width="48" height="48" viewBox="0 0 48 48" fill="none" xmlns="http://www.w3.org/2000/svg">
<g clip-path="url(#clip0_84_516)">
<path d="M13.214 47.205C14.2668 47.205 14.9973 46.6464 16.308 45.4861L23.7207 38.8898H37.5147C43.9176 38.8898 47.3553 35.3446 47.3553 29.0493V12.5909C47.3553 6.29545 43.9176 2.75024 37.5147 2.75024H9.84064C3.43778 2.75024 0 6.27398 0 12.5909V29.0493C0 35.3662 3.43778 38.8898 9.84064 38.8898H10.872V44.4762C10.872 46.1308 11.7099 47.205 13.214 47.205ZM14.0949 43.2731V37.042C14.0949 35.8818 13.6437 35.4306 12.4834 35.4306H9.84064C5.50044 35.4306 3.45927 33.2176 3.45927 29.0277V12.5909C3.45927 8.40109 5.50044 6.20951 9.84064 6.20951H37.5147C41.8334 6.20951 43.8961 8.40109 43.8961 12.5909V29.0277C43.8961 33.2176 41.8334 35.4306 37.5147 35.4306H23.5918C22.3885 35.4306 21.7869 35.6026 20.9704 36.4405L14.0949 43.2731Z" fill="#007AFF" fill-opacity="0.85"/>
<path d="M34.2059 23.8925C35.9033 23.8925 37.2785 22.5174 37.2785 20.8201C37.2785 19.1227 35.9033 17.7476 34.2059 17.7476C32.5087 17.7476 31.1335 19.1227 31.1335 20.8201C31.1335 22.5174 32.5087 23.8925 34.2059 23.8925Z" fill="#007AFF" fill-opacity="0.85"/>
<path d="M23.6992 23.8925C25.375 23.8925 26.7718 22.5174 26.7718 20.8201C26.7718 19.1227 25.375 17.7476 23.6992 17.7476C22.0018 17.7476 20.6052 19.1227 20.6052 20.8201C20.6052 22.5174 22.0018 23.8925 23.6992 23.8925Z" fill="#007AFF" fill-opacity="0.85"/>
<path d="M13.1709 23.8925C14.8683 23.8925 16.2434 22.5174 16.2434 20.8201C16.2434 19.1227 14.8683 17.7476 13.1709 17.7476C11.4735 17.7476 10.0984 19.1227 10.0984 20.8201C10.0984 22.5174 11.4735 23.8925 13.1709 23.8925Z" fill="#007AFF" fill-opacity="0.85"/>
</g>
<defs>
<clipPath id="clip0_84_516">
<rect width="48" height="47.205" fill="white"/>
</clipPath>
</defs>
</svg>
